<svg xmlns="http://www.w3.org/2000/svg" width="168" height="32" viewBox="0 0 168 32">
    <g fill="none" fill-rule="evenodd">
        <g fill-rule="nonzero">
            <g>
                <g>
                    <g fill="#000000">
                        <path d="M52.372 2.523c.386 0 .702-.126.951-.379.248-.252.372-.563.372-.933 0-.346-.128-.635-.38-.866C53.06.115 52.746 0 52.371 0s-.689.12-.942.361c-.253.242-.38.541-.38.9 0 .36.126.66.38.901.253.242.567.361.942.361z" transform="translate(-40 -17) translate(0 -1) translate(40 18) translate(40.78)"/>
                        <g>
                            <path d="M0 .029H2.148V11.805H0zM7.138 7.261c0-.875.22-1.545.66-2.01.44-.466 1.041-.699 1.802-.699.671 0 1.19.199 1.554.598.364.398.545.989.545 1.774v4.879h2.066V6.655c0-1.302-.336-2.282-1.009-2.944-.673-.662-1.564-.993-2.677-.993-.65 0-1.235.107-1.751.32-.519.213-.948.527-1.289.942V2.82H5.073v8.983h2.065V7.26zM24.491 2.821L22.509 2.821 19.682 9.481 16.939 2.821 14.791 2.821 18.575 11.803 20.707 11.803zM31.73 11.552c.606-.248 1.107-.612 1.504-1.094l-1.108-1.296c-.628.65-1.426.976-2.397.976-.698 0-1.29-.166-1.78-.49l-.06-.042c-.024-.016-.048-.03-.069-.047-.513-.386-.829-.911-.951-1.572h.005c-.055-.244-.086-.5-.086-.765 0-.293.036-.573.104-.836.11-.51.338-.933.679-1.273.231-.243.504-.424.802-.527.301-.119.63-.18.992-.18.671 0 1.234.202 1.685.606.452.405.721.932.81 1.581h-3.191v1.398h5.123c.021-.27.034-.477.034-.623 0-.919-.19-1.73-.57-2.431-.381-.7-.91-1.246-1.587-1.632-.678-.386-1.446-.58-2.306-.58-.87 0-1.652.197-2.347.589-.694.393-1.236.938-1.627 1.64-.392.7-.587 1.49-.587 2.363 0 .887.2 1.68.603 2.381.402.7.972 1.247 1.71 1.64.737.394 1.591.59 2.562.59.765-.006 1.446-.13 2.053-.376zM79.451 11.552c.607-.248 1.107-.612 1.504-1.094l-1.107-1.296c-.628.65-1.427.976-2.397.976-.698 0-1.29-.166-1.78-.49l-.061-.042c-.024-.016-.047-.03-.069-.047-.513-.386-.829-.911-.95-1.572h.005c-.056-.244-.086-.5-.086-.765 0-.293.035-.573.104-.836.11-.51.337-.933.678-1.273.231-.243.504-.424.802-.527.301-.119.63-.18.992-.18.671 0 1.235.202 1.685.606.452.405.722.932.81 1.581h-3.19v1.398h5.124c.021-.27.034-.477.034-.623 0-.919-.19-1.73-.57-2.431-.381-.7-.91-1.246-1.587-1.632-.678-.386-1.446-.58-2.306-.58-.87 0-1.652.197-2.347.589-.694.393-1.236.938-1.627 1.64-.391.7-.587 1.49-.587 2.363 0 .887.201 1.68.603 2.381.402.7.972 1.247 1.71 1.64.737.394 1.592.59 2.562.59.763-.006 1.447-.13 2.051-.376zM41.464 11.164c.716-.506 1.075-1.177 1.075-2.018 0-.64-.163-1.132-.488-1.48-.325-.347-.714-.594-1.164-.74-.453-.147-1.03-.275-1.736-.387-.705-.122-1.225-.254-1.56-.395-.336-.14-.505-.379-.505-.715 0-.303.158-.547.472-.73.314-.185.773-.279 1.38-.279.937 0 1.78.224 2.528.674l.793-1.598c-.386-.234-.88-.422-1.487-.563-.607-.14-1.213-.21-1.818-.21-1.19 0-2.135.255-2.835.766-.7.51-1.05 1.191-1.05 2.043 0 .65.169 1.159.504 1.522.336.364.733.619 1.19.765.458.146 1.05.274 1.777.386.694.112 1.198.23 1.512.354.314.123.47.343.47.655 0 .663-.617.993-1.851.993-.54 0-1.088-.081-1.644-.244-.556-.162-1.034-.379-1.43-.648l-.793 1.598c.407.292.952.532 1.636.724.684.19 1.384.285 2.1.285 1.232 0 2.208-.253 2.924-.758zM51.33 2.821H53.394999999999996V11.804H51.33zM61.181 6.926c-.452-.147-1.03-.275-1.735-.387-.705-.122-1.226-.254-1.561-.395-.336-.14-.505-.379-.505-.715 0-.303.158-.547.472-.73.314-.185.774-.279 1.38-.279.937 0 1.78.224 2.529.674l.793-1.598c-.386-.234-.881-.422-1.488-.563-.606-.14-1.213-.21-1.818-.21-1.19 0-2.135.255-2.835.766-.7.51-1.05 1.191-1.05 2.043 0 .65.17 1.159.505 1.522.335.364.732.619 1.19.765.457.146 1.05.274 1.776.386.694.112 1.199.23 1.513.354.314.123.47.343.47.655 0 .663-.618.993-1.852.993-.54 0-1.087-.081-1.644-.244-.556-.162-1.033-.379-1.43-.648l-.793 1.598c.407.292.953.532 1.636.724.684.19 1.384.285 2.1.285 1.234 0 2.209-.253 2.925-.757.716-.505 1.075-1.176 1.075-2.018 0-.638-.164-1.131-.488-1.48-.325-.35-.715-.595-1.165-.741zM69.692 6.926c-.453-.147-1.03-.275-1.735-.387-.706-.122-1.226-.254-1.562-.395-.335-.14-.504-.379-.504-.715 0-.303.158-.547.472-.73.314-.185.773-.279 1.38-.279.937 0 1.78.224 2.528.674l.793-1.598c-.385-.234-.88-.422-1.487-.563-.607-.14-1.213-.21-1.818-.21-1.19 0-2.135.255-2.835.766-.7.51-1.05 1.191-1.05 2.043 0 .65.169 1.159.505 1.522.335.364.732.619 1.19.765.457.146 1.049.274 1.776.386.694.112 1.198.23 1.512.354.314.123.47.343.47.655 0 .663-.617.993-1.851.993-.54 0-1.09-.081-1.644-.244-.556-.162-1.034-.379-1.43-.648l-.793 1.598c.407.292.953.532 1.636.724.684.19 1.384.285 2.1.285 1.234 0 2.209-.253 2.924-.757.716-.505 1.075-1.176 1.075-2.018 0-.638-.163-1.131-.488-1.48-.325-.35-.712-.595-1.164-.741zM94.547 2.72c-.694 0-1.328.132-1.9.395-.572.264-1.04.63-1.405 1.101-.298-.492-.702-.866-1.215-1.119-.513-.252-1.098-.379-1.76-.379-.606 0-1.157.107-1.653.32-.495.213-.91.521-1.24.926V2.819h-1.966v8.984h2.065v-4.56c0-.875.207-1.541.62-2.001.412-.46.972-.69 1.677-.69.639 0 1.129.199 1.471.598.341.398.514.989.514 1.774v4.879h2.065v-4.56c0-.862.21-1.527.628-1.992.418-.466.974-.699 1.669-.699.638 0 1.128.199 1.471.598.341.398.513.989.513 1.774v4.879h2.066V6.657c0-1.313-.325-2.296-.975-2.953-.651-.655-1.532-.984-2.645-.984zM116.18 2.72c-.65 0-1.234.107-1.751.32-.519.213-.947.527-1.288.942v-1.16h-1.967v8.982h2.065v-4.54c0-.876.221-1.546.66-2.012.44-.465 1.041-.698 1.802-.698.671 0 1.19.198 1.554.597.364.4.546.99.546 1.775v4.878h2.065V6.657c0-1.302-.336-2.282-1.009-2.944-.67-.663-1.564-.993-2.677-.993zM126.064 10.189c-.397 0-.7-.116-.91-.345-.21-.229-.314-.563-.314-1.002V4.57h2.363V2.888h-2.363V0h-2.065v2.888h-1.454V4.57h1.454v4.323c0 .987.263 1.738.793 2.254.53.517 1.277.775 2.248.775.386 0 .752-.05 1.098-.152.108-.03.208-.068.305-.11V9.819c-.307.245-.692.37-1.155.37zM1.269 19.645L.045 19.645.045 31.421 7.746 31.421 7.746 30.343 1.269 30.343zM15.216 23.076c-.673-.38-1.426-.572-2.264-.572-.838 0-1.592.191-2.265.572-.673.381-1.2.914-1.586 1.598-.386.684-.578 1.458-.578 2.32 0 .864.192 1.638.578 2.322.386.684.915 1.22 1.586 1.606.671.387 1.427.582 2.265.582.838 0 1.591-.193 2.264-.582.671-.386 1.199-.922 1.58-1.606.38-.684.57-1.458.57-2.321 0-.863-.19-1.637-.57-2.321-.381-.683-.907-1.215-1.58-1.598zm.546 5.72c-.277.527-.659.933-1.149 1.22-.49.286-1.044.43-1.661.43s-1.17-.143-1.662-.43c-.49-.285-.875-.693-1.157-1.22-.282-.527-.422-1.126-.422-1.8 0-.673.14-1.272.422-1.799.28-.527.666-.933 1.157-1.22.49-.285 1.045-.43 1.662-.43s1.17.143 1.661.43c.49.285.874.693 1.149 1.22.274.527.412 1.126.412 1.8 0 .671-.136 1.272-.412 1.8zM21.67 23.977c.501-.285 1.067-.43 1.695-.43.518 0 .997.11 1.437.329.441.218.804.547 1.09.984l.876-.607c-.34-.572-.807-1.007-1.396-1.303-.59-.298-1.26-.446-2.007-.446-.86 0-1.628.191-2.306.572-.679.381-1.21.914-1.595 1.598-.386.684-.578 1.458-.578 2.32 0 .864.192 1.642.578 2.331.385.69.916 1.226 1.595 1.606.678.381 1.446.573 2.306.573.737 0 1.405-.148 1.998-.446.596-.298 1.063-.731 1.405-1.303l-.875-.607c-.287.437-.65.764-1.091.977-.442.213-.92.32-1.437.32-.628 0-1.194-.143-1.694-.43-.503-.286-.892-.69-1.174-1.212-.282-.521-.422-1.124-.422-1.808 0-.673.14-1.273.422-1.8.282-.525.671-.933 1.174-1.218zM32.107 22.504c-.684 0-1.333.105-1.95.31-.618.208-1.147.502-1.587.883l.53.892c.364-.325.798-.58 1.306-.765.506-.186 1.035-.278 1.586-.278.804 0 1.416.198 1.834.597.418.399.628.978.628 1.742v.538h-2.76c-1.168 0-2.019.229-2.553.69-.535.46-.802 1.064-.802 1.815 0 .774.287 1.397.859 1.866.572.471 1.344.706 2.313.706.705 0 1.313-.128 1.827-.386.513-.258.9-.618 1.164-1.076v1.379h1.123v-5.483c0-1.132-.303-1.988-.91-2.565-.602-.576-1.474-.865-2.608-.865zm2.347 6.258c-.232.583-.585 1.029-1.059 1.337-.474.309-1.04.462-1.703.462-.694 0-1.234-.148-1.62-.445-.386-.298-.578-.704-.578-1.22 0-1.055.745-1.582 2.23-1.582h2.728v1.448h.002zM45.527 22.573H46.701V31.421H45.527zM46.12 18.94c-.241 0-.446.084-.611.252-.165.168-.248.365-.248.588 0 .235.083.437.248.607.165.168.37.253.612.253s.447-.085.612-.253c.165-.168.247-.375.247-.623 0-.224-.082-.417-.247-.581-.165-.162-.37-.244-.612-.244zM52.798 18.855c-.838 0-1.484.234-1.942.705-.457.471-.685 1.11-.685 1.917v1.094h-1.554v1.009h1.554v7.839h1.173v-7.84h2.645v-1.008h-2.677v-1.043c0-.549.13-.964.387-1.246.259-.28.643-.42 1.149-.42.518 0 .947.146 1.288.436l.397-.891c-.21-.179-.469-.318-.777-.412-.309-.092-.628-.14-.958-.14zM107.042 11.552c.606-.248 1.107-.612 1.503-1.094l-1.107-1.296c-.628.65-1.426.976-2.397.976-.698 0-1.29-.166-1.78-.49l-.061-.042c-.024-.016-.047-.03-.068-.047-.514-.386-.83-.911-.951-1.572h.005c-.056-.244-.086-.5-.086-.765 0-.293.036-.573.104-.836.11-.51.337-.933.678-1.273.232-.243.504-.424.802-.527.302-.119.63-.18.993-.18.67 0 1.234.202 1.684.606.453.405.722.932.81 1.581h-3.189v1.398h5.123c.022-.27.034-.477.034-.623 0-.919-.19-1.73-.57-2.431-.38-.7-.91-1.246-1.587-1.632-.678-.386-1.446-.58-2.305-.58-.87 0-1.653.197-2.347.589-.695.393-1.237.938-1.628 1.64-.391.7-.587 1.49-.587 2.363 0 .887.201 1.68.603 2.381.402.7.973 1.247 1.71 1.64.738.394 1.592.59 2.563.59.76-.006 1.444-.13 2.05-.376zM47.92 10.189c-.396 0-.7-.116-.91-.345-.21-.229-.313-.563-.313-1.002V4.57h2.363V2.888h-2.363V0H44.63v2.888h-1.453V4.57h1.453v4.323c0 .987.264 1.738.794 2.254.529.517 1.277.775 2.248.775.386 0 .752-.05 1.098-.152.108-.03.208-.068.305-.11V9.819c-.309.245-.694.37-1.155.37zM42.396 30.361c-.226.08-.461.117-.702.117-.484 0-.856-.137-1.116-.411-.258-.274-.388-.675-.388-1.202v-5.281h2.645v-1.01H40.19v-2.936h-1.173v2.937h-1.554v1.009h1.554v5.35c0 .819.22 1.452.66 1.9.44.45 1.07.673 1.884.673.354 0 .691-.054 1.018-.16.09-.03.174-.064.256-.1v-1.113c-.134.088-.276.17-.44.227z" transform="translate(-40 -17) translate(0 -1) translate(40 18) translate(40.78) translate(0 .493)"/>
                        </g>
                    </g>
                    <g>
                        <path fill="#00B3E9" d="M9.632 21.569L9.632 11.765 0 11.765 0 31.374 19.266 31.374 19.266 21.569z" transform="translate(-40 -17) translate(0 -1) translate(40 18) translate(0 .523)"/>
                        <path fill="#F24E3B" d="M21.192 9.805L21.192 19.609 30.826 19.609 30.826 0 11.559 0 11.559 9.805z" transform="translate(-40 -17) translate(0 -1) translate(40 18) translate(0 .523)"/>
                    </g>
                </g>
            </g>
        </g>
    </g>
</svg>
